<svg xmlns="http://www.w3.org/2000/svg" version="1.1" class="w100 h-auto" width="660" height="400" viewBox="0 0 585 395"><g></g><g class="chart-area" font-family="sans-serif" transform="translate(100, 20)"><g transform="translate(0,300)" fill="none" font-size="10" font-family="sans-serif" text-anchor="middle"><path class="domain" stroke="currentColor" d="M0,6V0H410V6"></path><g class="tick" opacity="1" transform="translate(36.152695035460994,0)"><line stroke="currentColor" y2="6"></line><text fill="currentColor" y="9" dy="0.71em" style="font-size: 12px;">2010</text></g><g class="tick" opacity="1" transform="translate(87.09737588652483,0)"><line stroke="currentColor" y2="6"></line><text fill="currentColor" y="9" dy="0.71em" style="font-size: 12px;">2012</text></g><g class="tick" opacity="1" transform="translate(138.1118439716312,0)"><line stroke="currentColor" y2="6"></line><text fill="currentColor" y="9" dy="0.71em" style="font-size: 12px;">2014</text></g><g class="tick" opacity="1" transform="translate(189.05652482269502,0)"><line stroke="currentColor" y2="6"></line><text fill="currentColor" y="9" dy="0.71em" style="font-size: 12px;">2016</text></g><g class="tick" opacity="1" transform="translate(240.07099290780138,0)"><line stroke="currentColor" y2="6"></line><text fill="currentColor" y="9" dy="0.71em" style="font-size: 12px;">2018</text></g><g class="tick" opacity="1" transform="translate(291.0156737588652,0)"><line stroke="currentColor" y2="6"></line><text fill="currentColor" y="9" dy="0.71em" style="font-size: 12px;">2020</text></g><g class="tick" opacity="1" transform="translate(342.03014184397165,0)"><line stroke="currentColor" y2="6"></line><text fill="currentColor" y="9" dy="0.71em" style="font-size: 12px;">2022</text></g><g class="tick" opacity="1" transform="translate(392.97482269503547,0)"><line stroke="currentColor" y2="6"></line><text fill="currentColor" y="9" dy="0.71em" style="font-size: 12px;">2024</text></g></g><g class="grid-lines" transform="translate(0,300)" fill="none" font-size="10" font-family="sans-serif" text-anchor="middle"><path class="domain" stroke="currentColor" d="M0,-300V0H410V-300"></path><g class="tick" opacity="1" transform="translate(36.152695035460994,0)"><line stroke="currentColor" y2="-300" style="stroke: #ccc; fill: none;"></line></g><g class="tick" opacity="1" transform="translate(87.09737588652483,0)"><line stroke="currentColor" y2="-300" style="stroke: #ccc; fill: none;"></line></g><g class="tick" opacity="1" transform="translate(138.1118439716312,0)"><line stroke="currentColor" y2="-300" style="stroke: #ccc; fill: none;"></line></g><g class="tick" opacity="1" transform="translate(189.05652482269502,0)"><line stroke="currentColor" y2="-300" style="stroke: #ccc; fill: none;"></line></g><g class="tick" opacity="1" transform="translate(240.07099290780138,0)"><line stroke="currentColor" y2="-300" style="stroke: #ccc; fill: none;"></line></g><g class="tick" opacity="1" transform="translate(291.0156737588652,0)"><line stroke="currentColor" y2="-300" style="stroke: #ccc; fill: none;"></line></g><g class="tick" opacity="1" transform="translate(342.03014184397165,0)"><line stroke="currentColor" y2="-300" style="stroke: #ccc; fill: none;"></line></g><g class="tick" opacity="1" transform="translate(392.97482269503547,0)"><line stroke="currentColor" y2="-300" style="stroke: #ccc; fill: none;"></line></g></g><text x="205" y="360" class="axis-label x-axis-label" style="text-anchor: middle; font-weight: bold;">Year</text><g fill="none" font-size="10" font-family="sans-serif" text-anchor="end"><path class="domain" stroke="currentColor" d="M-6,300H0V0H-6"></path><g class="tick" opacity="1" transform="translate(0,300)"><line stroke="currentColor" x2="-6"></line><text fill="currentColor" x="-9" dy="0.32em" style="font-size: 12px;">0.00%</text></g><g class="tick" opacity="1" transform="translate(0,266.66666666666663)"><line stroke="currentColor" x2="-6"></line><text fill="currentColor" x="-9" dy="0.32em" style="font-size: 12px;">2.00%</text></g><g class="tick" opacity="1" transform="translate(0,233.33333333333334)"><line stroke="currentColor" x2="-6"></line><text fill="currentColor" x="-9" dy="0.32em" style="font-size: 12px;">4.00%</text></g><g class="tick" opacity="1" transform="translate(0,200.00000000000003)"><line stroke="currentColor" x2="-6"></line><text fill="currentColor" x="-9" dy="0.32em" style="font-size: 12px;">6.00%</text></g><g class="tick" opacity="1" transform="translate(0,166.66666666666669)"><line stroke="currentColor" x2="-6"></line><text fill="currentColor" x="-9" dy="0.32em" style="font-size: 12px;">8.00%</text></g><g class="tick" opacity="1" transform="translate(0,133.33333333333331)"><line stroke="currentColor" x2="-6"></line><text fill="currentColor" x="-9" dy="0.32em" style="font-size: 12px;">10.00%</text></g><g class="tick" opacity="1" transform="translate(0,100.00000000000001)"><line stroke="currentColor" x2="-6"></line><text fill="currentColor" x="-9" dy="0.32em" style="font-size: 12px;">12.00%</text></g><g class="tick" opacity="1" transform="translate(0,66.66666666666663)"><line stroke="currentColor" x2="-6"></line><text fill="currentColor" x="-9" dy="0.32em" style="font-size: 12px;">14.00%</text></g><g class="tick" opacity="1" transform="translate(0,33.333333333333314)"><line stroke="currentColor" x2="-6"></line><text fill="currentColor" x="-9" dy="0.32em" style="font-size: 12px;">16.00%</text></g><g class="tick" opacity="1" transform="translate(0,0)"><line stroke="currentColor" x2="-6"></line><text fill="currentColor" x="-9" dy="0.32em" style="font-size: 12px;">18.00%</text></g></g><g class="grid-lines" fill="none" font-size="10" font-family="sans-serif" text-anchor="end"><path class="domain" stroke="currentColor" d="M410,300H0V0H410"></path><g class="tick" opacity="1" transform="translate(0,300)"><line stroke="currentColor" x2="410" style="stroke: #ccc; fill: none;"></line></g><g class="tick" opacity="1" transform="translate(0,266.66666666666663)"><line stroke="currentColor" x2="410" style="stroke: #ccc; fill: none;"></line></g><g class="tick" opacity="1" transform="translate(0,233.33333333333334)"><line stroke="currentColor" x2="410" style="stroke: #ccc; fill: none;"></line></g><g class="tick" opacity="1" transform="translate(0,200.00000000000003)"><line stroke="currentColor" x2="410" style="stroke: #ccc; fill: none;"></line></g><g class="tick" opacity="1" transform="translate(0,166.66666666666669)"><line stroke="currentColor" x2="410" style="stroke: #ccc; fill: none;"></line></g><g class="tick" opacity="1" transform="translate(0,133.33333333333331)"><line stroke="currentColor" x2="410" style="stroke: #ccc; fill: none;"></line></g><g class="tick" opacity="1" transform="translate(0,100.00000000000001)"><line stroke="currentColor" x2="410" style="stroke: #ccc; fill: none;"></line></g><g class="tick" opacity="1" transform="translate(0,66.66666666666663)"><line stroke="currentColor" x2="410" style="stroke: #ccc; fill: none;"></line></g><g class="tick" opacity="1" transform="translate(0,33.333333333333314)"><line stroke="currentColor" x2="410" style="stroke: #ccc; fill: none;"></line></g><g class="tick" opacity="1" transform="translate(0,0)"><line stroke="currentColor" x2="410" style="stroke: #ccc; fill: none;"></line></g></g><g class="lines"><path class="line" d="M2.163,163.77L4.257,166.695L6.42,172.657L8.517,184.269L10.68,177.88L12.844,184.441L14.798,182.244L16.958,178.971L19.052,181.261L21.215,173.973L23.309,182.628L25.472,187.372L27.636,184.663L29.729,183.898L31.893,179.221L33.989,180.381L36.153,160.596L38.316,165.794L40.27,156.961L42.431,169.941L44.524,165.238L46.688,170.949L48.781,175.466L50.945,175.927L53.108,170.842L55.202,167.916L57.365,165.278L59.462,163.138L61.625,162.806L63.788,161.136L65.742,159.217L67.903,161.416L69.997,156.981L72.16,166.457L74.254,164.041L76.417,164.347L78.58,163.122L80.674,158.562L82.837,151.801L84.934,151.583L87.097,153.6L89.261,151.841L91.285,144.913L93.445,143.689L95.539,148.176L97.702,158.034L99.796,155.464L101.959,154.828L104.123,152.751L106.216,149.234L108.38,146.086L110.476,146.284L112.64,154.213L114.803,150.181L116.757,146.503L118.917,141.526L121.011,146.632L123.174,152.743L125.268,156.191L127.431,152.02L129.595,135.716L131.689,130.016L133.852,122.189L135.948,123.649L138.112,134.551L140.275,128.823L142.229,123.138L144.39,120.454L146.483,129.52L148.647,136.181L150.74,135.971L152.904,138.785L155.067,131.751L157.161,126.652L159.324,120.685L161.421,123.461L163.584,132.87L165.748,133.063L167.702,125.247L169.862,124.849L171.956,132.308L174.119,140.42L176.213,139.437L178.376,141.75L180.54,139.862L182.633,132.757L184.797,132.434L186.893,138.765L189.057,145.65L191.22,140.695L193.244,134.069L195.404,133.524L197.498,148.985L199.661,154.808L201.755,158.011L203.918,159.498L206.082,156.266L208.175,152.894L210.339,149.66L212.435,156.504L214.599,161.412L216.762,160.164L218.716,155.508L220.877,150.001L222.97,152.675L225.134,161.97L227.227,167.82L229.391,169.554L231.554,167.584L233.648,161.458L235.811,158.828L237.908,161.278L240.071,170.357L242.234,167.711L244.188,167.968L246.349,160.346L248.443,164.677L250.606,171.338L252.7,176.026L254.863,179.505L257.026,174.716L259.12,168.497L261.283,168.099L263.38,166.706L265.543,175.445L267.707,173.294L269.661,173.819L271.821,177.188L273.915,176.413L276.078,180.368L278.172,178.968L280.335,188.171L282.499,180.752L284.592,176.179L286.756,182.788L288.852,185.373L291.016,185.86L293.179,183.449L295.203,180.623L297.363,183.957L299.457,191.602L301.62,193.961L303.714,194.102L305.877,194.386L308.041,193.727L310.134,193.96L312.298,194.322L314.394,201.895L316.558,203.337L318.721,203.181L320.675,201.875L322.836,201.905L324.929,200.107L327.093,200.993L329.186,205.755L331.35,206.978L333.513,207.205L335.607,207.316L337.77,202.478L339.867,207.304L342.03,209.28L344.194,212.511L346.148,210.533L348.308,206.539L350.402,206.314L352.565,213.758L354.659,217.931L356.822,220.947L358.986,218.149L361.079,216.166L363.243,216.921L365.339,216.101L367.502,218.472L369.666,219.6L371.62,213.343L373.78,210.666L375.874,215.33L378.037,211.357L380.131,215.285L382.294,214.322L384.458,214.345L386.551,214.813L388.715,214.875L390.811,222.34L392.975,221.011L395.138,221.646L397.162,218.256L399.323,222.488L401.416,227.973L403.58,228.244L405.673,233.514L407.837,239.333L410,228.466" data-legend="java" style="stroke: rgb(31, 119, 180); fill: none;"></path><path class="line" d="M2.163,261.181L4.257,264.754L6.42,265.561L8.517,273.627L10.68,266.161L12.844,268.178L14.798,264.657L16.958,264.016L19.052,268.563L21.215,270.195L23.309,272L25.472,272.707L27.636,270.757L29.729,264.101L31.893,258.001L33.989,262.136L36.153,263.35L38.316,261.162L40.27,264.128L42.431,260.333L44.524,261.848L46.688,265.186L48.781,264.474L50.945,263.962L53.108,262.352L55.202,262.096L57.365,259.559L59.462,264.564L61.625,269.339L63.788,266.922L65.742,264.883L67.903,264.255L69.997,269.423L72.16,270.127L74.254,272.265L76.417,271.312L78.58,268.34L80.674,264.428L82.837,266.004L84.934,267.448L87.097,267.75L89.261,267.369L91.285,265.778L93.445,265.09L95.539,268.987L97.702,270.341L99.796,272.014L101.959,272.514L104.123,267.899L106.216,264.683L108.38,263.865L110.476,268.263L112.64,269.063L114.803,266.061L116.757,266.877L118.917,265.503L121.011,267.822L123.174,268.898L125.268,271.471L127.431,270.386L129.595,265.728L131.689,261.495L133.852,259.391L135.948,264.569L138.112,266.914L140.275,264.557L142.229,263.255L144.39,265.509L146.483,269.025L148.647,271.415L150.74,273.238L152.904,272.521L155.067,267.368L157.161,263.168L159.324,263.164L161.421,265.964L163.584,267.519L165.748,266.451L167.702,265.28L169.862,264.982L171.956,268.129L174.119,271.64L176.213,275.812L178.376,276.151L180.54,270.81L182.633,266.808L184.797,265.914L186.893,269.875L189.057,271.702L191.22,270.729L193.244,271.236L195.404,271.317L197.498,275.846L199.661,279.017L201.755,277.664L203.918,279.528L206.082,275.378L208.175,269.192L210.339,268.652L212.435,271.004L214.599,273.735L216.762,273.767L218.716,275.243L220.877,273.121L222.97,275.217L225.134,277.85L227.227,280.887L229.391,280.626L231.554,278.201L233.648,272.52L235.811,270.607L237.908,274.57L240.071,276.776L242.234,276.427L244.188,275.997L246.349,277.361L248.443,276.205L250.606,279.983L252.7,283.117L254.863,282.131L257.026,278.552L259.12,274.267L261.283,271.58L263.38,272.007L265.543,274.225L267.707,276.308L269.661,275.041L271.821,273.274L273.915,276.655L276.078,278.53L278.172,280.432L280.335,280.913L282.499,275.259L284.592,272.594L286.756,271.456L288.852,272.712L291.016,276.448L293.179,276.983L295.203,273.212L297.363,270.063L299.457,269.623L301.62,274.609L303.714,278.741L305.877,278.476L308.041,274.422L310.134,271.851L312.298,266.38L314.394,266.781L316.558,269.1L318.721,271.331L320.675,271.839L322.836,271.509L324.929,273.761L327.093,275.609L329.186,278.072L331.35,278.872L333.513,276.015L335.607,270.397L337.77,268.829L339.867,268.509L342.03,272.457L344.194,275.194L346.148,273.458L348.308,274.372L350.402,274.388L352.565,276.407L354.659,279.03L356.822,278.626L358.986,274.848L361.079,270.042L363.243,269.201L365.339,269.886L367.502,274.988L369.666,275.787L371.62,276.917L373.78,272.866L375.874,275.015L378.037,278.237L380.131,277.363L382.294,277.632L384.458,273.78L386.551,272.131L388.715,275.153L390.811,273.462L392.975,277.388L395.138,278.23L397.162,278.615L399.323,277.672L401.416,278.889L403.58,277.913L405.673,277.548L407.837,276.66L410,276.414" data-legend="c" style="stroke: rgb(255, 127, 14); fill: none;"></path><path class="line" d="M2.163,235.1L4.257,241.257L6.42,240.333L8.517,238.698L10.68,232.642L12.844,239.432L14.798,236.911L16.958,238.97L19.052,234.834L21.215,237.823L23.309,239.724L25.472,241.648L27.636,240.235L29.729,234.193L31.893,232.048L33.989,229.229L36.153,227.487L38.316,230.099L40.27,233.315L42.431,239.29L44.524,234.967L46.688,233.512L48.781,228.589L50.945,234.238L53.108,238.279L55.202,229.648L57.365,237.275L59.462,240.247L61.625,239.079L63.788,239.096L65.742,237.667L67.903,241.544L69.997,241.128L72.16,241.24L74.254,238.954L76.417,240.03L78.58,242.023L80.674,240.081L82.837,240.302L84.934,241.285L87.097,239.202L89.261,238.958L91.285,236.724L93.445,235.848L95.539,236.347L97.702,232.264L99.796,232.313L101.959,230.435L104.123,233.354L106.216,231.308L108.38,227.492L110.476,228.746L112.64,230.107L114.803,226.239L116.757,226.465L118.917,222.403L121.011,221.344L123.174,219.553L125.268,218.198L127.431,221.748L129.595,219.443L131.689,213.729L133.852,209.729L135.948,214.469L138.112,212.655L140.275,211.72L142.229,207.861L144.39,207.327L146.483,212.068L148.647,208.013L150.74,206.145L152.904,206.42L155.067,211.38L157.161,207.053L159.324,203.638L161.421,202.336L163.584,202.051L165.748,198.252L167.702,197.314L169.862,198.835L171.956,198.499L174.119,194.439L176.213,194.056L178.376,195.977L180.54,196.318L182.633,187.396L184.797,184.022L186.893,186.454L189.057,185.252L191.22,181.707L193.244,182.552L195.404,183.376L197.498,183.736L199.661,182.234L201.755,178.118L203.918,180.517L206.082,178.893L208.175,170.38L210.339,163.842L212.435,164.816L214.599,164.236L216.762,158.065L218.716,157.03L220.877,152.616L222.97,154.057L225.134,148.856L227.227,141.716L229.391,143.611L231.554,139.552L233.648,132.391L235.811,131.003L237.908,127.202L240.071,129.623L242.234,120.687L244.188,125.613L246.349,124.197L248.443,123.294L250.606,116.452L252.7,110.504L254.863,110.767L257.026,112.543L259.12,108.939L261.283,96.726L263.38,99.067L265.543,108.344L267.707,97.673L269.661,91.213L271.821,81.632L273.915,88.845L276.078,85.76L278.172,79.108L280.335,77.737L282.499,91.458L284.592,73.853L286.756,65.657L288.852,69.661L291.016,70.533L293.179,67.34L295.203,55.442L297.363,45.61L299.457,34.275L301.62,34.169L303.714,33.25L305.877,38.585L308.041,41.454L310.134,29.24L312.298,23.595L314.394,21.323L316.558,24.628L318.721,26.042L320.675,30.137L322.836,22.206L324.929,18.39L327.093,27.24L329.186,21.022L331.35,26.636L333.513,32.922L335.607,20.103L337.77,16.968L339.867,14.731L342.03,22.423L344.194,15.175L346.148,17.644L348.308,7.94L350.402,18.912L352.565,16.622L354.659,11.014L356.822,21.784L358.986,22.868L361.079,6.446L363.243,10.324L365.339,23.677L367.502,39.315L369.666,43.709L371.62,52.435L373.78,51.84L375.874,57.1L378.037,58.966L380.131,57.334L382.294,67.328L384.458,76.505L386.551,71.904L388.715,81.003L390.811,86.148L392.975,87.175L395.138,78.497L397.162,85.853L399.323,78.72L401.416,80.293L403.58,86.176L405.673,84.863L407.837,84.576L410,97.773" data-legend="python" style="stroke: rgb(44, 160, 44); fill: none;"></path><path class="line" d="M2.163,101.053L4.257,69.1L6.42,69.208L8.517,76.394L10.68,46.685L12.844,50.519L14.798,39.385L16.958,38.206L19.052,67.696L21.215,68.552L23.309,70.471L25.472,70.771L27.636,77.761L29.729,80.753L31.893,95.048L33.989,99.877L36.153,108.469L38.316,108.776L40.27,105.876L42.431,106.004L44.524,108.14L46.688,114.758L48.781,115.316L50.945,116.268L53.108,123.932L55.202,122.79L57.365,123.582L59.462,128.547L61.625,132.271L63.788,133.676L65.742,133.933L67.903,137.263L69.997,132.832L72.16,134.953L74.254,139.974L76.417,142.753L78.58,147.309L80.674,147.654L82.837,147.553L84.934,149.415L87.097,149.826L89.261,154.45L91.285,154.919L93.445,155.733L95.539,156.185L97.702,155.038L99.796,154.692L101.959,158.373L104.123,157.039L106.216,157.687L108.38,161.313L110.476,164.228L112.64,164.229L114.803,163.077L116.757,162.371L118.917,164.22L121.011,164.572L123.174,164.666L125.268,165.526L127.431,163.688L129.595,160.891L131.689,161.881L133.852,161.443L135.948,162.111L138.112,164.109L140.275,165.143L142.229,169.625L144.39,168.095L146.483,167.915L148.647,171.402L150.74,170.763L152.904,171.979L155.067,175.544L157.161,178.319L159.324,180.635L161.421,180.404L163.584,181.236L165.748,182.352L167.702,182.586L169.862,184.18L171.956,179.148L174.119,178.954L176.213,178.672L178.376,177.44L180.54,177.733L182.633,184.548L184.797,183.228L186.893,181.668L189.057,185.122L191.22,186.343L193.244,186.468L195.404,182.742L197.498,180.145L199.661,180.882L201.755,185.929L203.918,182.278L206.082,191.072L208.175,190.031L210.339,188.07L212.435,189.22L214.599,188.651L216.762,189.64L218.716,191.534L220.877,195.478L222.97,191.928L225.134,193.27L227.227,195.04L229.391,196.067L231.554,197.499L233.648,198.786L235.811,202.518L237.908,200.474L240.071,201.579L242.234,205.688L244.188,204.631L246.349,204.346L248.443,200.268L250.606,204.072L252.7,200.69L254.863,198.945L257.026,202.214L259.12,201.732L261.283,204.47L263.38,203.689L265.543,201.14L267.707,203.742L269.661,206.045L271.821,199.752L273.915,199.265L276.078,205.541L278.172,205.624L280.335,205.071L282.499,203.202L284.592,206.968L286.756,208.777L288.852,208.309L291.016,210.438L293.179,210.463L295.203,215.943L297.363,220.907L299.457,222.432L301.62,222.558L303.714,220.826L305.877,219.793L308.041,223.183L310.134,226.447L312.298,225.363L314.394,227.887L316.558,225.467L318.721,225.804L320.675,227.671L322.836,226.976L324.929,227.962L327.093,226.525L329.186,229.452L331.35,229.601L333.513,229.06L335.607,225.268L337.77,221.109L339.867,224.63L342.03,225.775L344.194,224.721L346.148,222.628L348.308,223.457L350.402,220.391L352.565,219.846L354.659,220.624L356.822,218.152L358.986,218.979L361.079,220.155L363.243,220.493L365.339,218.714L367.502,218.263L369.666,219.108L371.62,218.383L373.78,218.5L375.874,218.044L378.037,213.879L380.131,211.521L382.294,212.973L384.458,215.047L386.551,216.456L388.715,219.235L390.811,218.899L392.975,226.101L395.138,223.419L397.162,224.829L399.323,217.725L401.416,221.011L403.58,220.544L405.673,215.445L407.837,216.766L410,220.575" data-legend="c#" style="stroke: rgb(214, 39, 40); fill: none;"></path><path class="line" d="M2.163,274.282L4.257,271.966L6.42,269.966L8.517,269.98L10.68,273.633L12.844,272.793L14.798,267.547L16.958,270.357L19.052,271.969L21.215,274.197L23.309,276.693L25.472,271.882L27.636,275.562L29.729,280.216L31.893,280.36L33.989,277.809L36.153,279.951L38.316,277.501L40.27,278.373L42.431,279.662L44.524,282.349L46.688,283.454L48.781,281.241L50.945,283.645L53.108,283.841L55.202,283.341L57.365,282.858L59.462,285.037L61.625,282.462L63.788,283.633L65.742,285.183L67.903,282.532L69.997,284.661L72.16,284.809L74.254,285.245L76.417,285.656L78.58,286.254L80.674,285.262L82.837,286.73L84.934,286.063L87.097,285.748L89.261,285.781L91.285,287.056L93.445,287.141L95.539,286.846L97.702,288.47L99.796,287.977L101.959,286.917L104.123,285.864L106.216,286.663L108.38,285.251L110.476,286.393L112.64,285.808L114.803,285.74L116.757,286.487L118.917,284.799L121.011,285.64L123.174,285.108L125.268,284.629L127.431,284.555L129.595,284.124L131.689,283.533L133.852,284.78L135.948,284.426L138.112,284.281L140.275,284.872L142.229,284.205L144.39,284.38L146.483,286.306L148.647,286.355L150.74,285.935L152.904,286.518L155.067,286.933L157.161,286.558L159.324,286.752L161.421,286.043L163.584,286.691L165.748,287.93L167.702,288.015L169.862,288.177L171.956,288.016L174.119,287.664L176.213,288.298L178.376,288.651L180.54,288.296L182.633,288.996L184.797,289.372L186.893,288.835L189.057,288.556L191.22,289.172L193.244,289.216L195.404,289.779L197.498,289.243L199.661,289.974L201.755,289.894L203.918,289.903L206.082,290.584L208.175,290.545L210.339,290.619L212.435,290.941L214.599,290.927L216.762,291.095L218.716,291.223L220.877,291.125L222.97,291.45L225.134,291.863L227.227,291.884L229.391,292.614L231.554,292.227L233.648,292.582L235.811,292.402L237.908,292.467L240.071,293.392L242.234,292.958L244.188,293.479L246.349,294.07L248.443,293.17L250.606,293.521L252.7,293.755L254.863,294.56L257.026,293.269L259.12,293.923L261.283,293.735L263.38,294.135L265.543,293.381L267.707,292.862L269.661,293.542L271.821,293.123L273.915,293.629L276.078,293.492L278.172,293.754L280.335,294.342L282.499,294.316L284.592,294.022L286.756,294.467L288.852,293.963L291.016,294.789L293.179,294.464L295.203,294.348L297.363,294.687L299.457,295.409L301.62,295.28L303.714,295.329L305.877,295.114L308.041,295.154L310.134,294.768L312.298,295.269L314.394,295.472L316.558,295.422L318.721,295.327L320.675,294.895L322.836,294.814L324.929,295.82L327.093,295.83L329.186,296.27L331.35,295.586L333.513,296.052L335.607,295.615L337.77,296.061L339.867,295.484L342.03,296.166L344.194,295.549L346.148,295.831L348.308,296.324L350.402,296.179L352.565,295.76L354.659,295.846L356.822,296.473L358.986,295.981L361.079,296.488L363.243,296.042L365.339,296.447L367.502,295.77L369.666,295.429L371.62,295.537L373.78,296.464L375.874,295.333L378.037,295.701L380.131,295.51L382.294,296.235L384.458,295.976L386.551,295.381L388.715,296.533L390.811,296.342L392.975,296.273L395.138,297.168L397.162,296.231L399.323,296.117L401.416,296.118L403.58,297.289L405.673,295.872L407.837,296.259L410,295.516" data-legend="vb.net" style="stroke: rgb(148, 103, 189); fill: none;"></path><path class="line" d="M2.163,223.211L4.257,216.248L6.42,222.446L8.517,212.465L10.68,215.989L12.844,209.341L14.798,217.009L16.958,217.174L19.052,206.41L21.215,207.54L23.309,208.647L25.472,204.243L27.636,210.225L29.729,204.982L31.893,202.105L33.989,197.125L36.153,201.668L38.316,200.913L40.27,203.728L42.431,198.85L44.524,195.39L46.688,195.014L48.781,192.703L50.945,194.342L53.108,190.16L55.202,191.85L57.365,190.387L59.462,180.348L61.625,186.127L63.788,186.67L65.742,187.433L67.903,179.183L69.997,177.741L72.16,169.957L74.254,164.794L76.417,160.651L78.58,165.488L80.674,167.255L82.837,166.776L84.934,165.341L87.097,161.265L89.261,164.94L91.285,165.748L93.445,161.216L95.539,156.362L97.702,156.058L99.796,154.443L101.959,152.688L104.123,158.298L106.216,161.077L108.38,160.188L110.476,154.473L112.64,153.284L114.803,150.687L116.757,152.435L118.917,150.325L121.011,148.463L123.174,145.563L125.268,140.468L127.431,134.311L129.595,121.08L131.689,120.801L133.852,124.443L135.948,117.546L138.112,112.809L140.275,111.58L142.229,117.457L144.39,115.444L146.483,112.029L148.647,111.422L150.74,109.856L152.904,111.028L155.067,117.255L157.161,116.714L159.324,119.231L161.421,116.818L163.584,112.846L165.748,114.114L167.702,118.429L169.862,114.97L171.956,99.829L174.119,97.76L176.213,94.053L178.376,94.795L180.54,97.83L182.633,103.345L184.797,99.549L186.893,94.662L189.057,90.972L191.22,99.514L193.244,99.097L195.404,99.581L197.498,95.903L199.661,97.899L201.755,88.802L203.918,90.211L206.082,99.325L208.175,103.714L210.339,103.052L212.435,94.761L214.599,96.259L216.762,96.339L218.716,102.137L220.877,99.935L222.97,98.038L225.134,96.247L227.227,97.7L229.391,97.6L231.554,103.03L233.648,103.691L235.811,106.712L237.908,103.64L240.071,101.6L242.234,110.538L244.188,113.568L246.349,113.989L248.443,118.408L250.606,112.315L252.7,111.859L254.863,109.602L257.026,112.8L259.12,116.842L261.283,117.524L263.38,117.827L265.543,118.84L267.707,119.098L269.661,118.244L271.821,122.091L273.915,119.859L276.078,115.92L278.172,119.636L280.335,112.625L282.499,116.509L284.592,123.364L286.756,120.977L288.852,118.06L291.016,115.942L293.179,117.149L295.203,110.448L297.363,107.59L299.457,106.03L301.62,105.917L303.714,98.391L305.877,95.401L308.041,100.475L310.134,104.974L312.298,106.493L314.394,98.821L316.558,96.986L318.721,104.629L320.675,110.151L322.836,103.512L324.929,101.11L327.093,104.164L329.186,99.873L331.35,98.543L333.513,97.545L335.607,104.584L337.77,110.027L339.867,104.025L342.03,103.353L344.194,110.676L346.148,114.847L348.308,101.725L350.402,107.18L352.565,109.496L354.659,106.46L356.822,105.261L358.986,106.964L361.079,115.581L363.243,119.813L365.339,120.986L367.502,125.682L369.666,133.132L371.62,135.996L373.78,138.399L375.874,144.104L378.037,143.893L380.131,140.141L382.294,152.416L384.458,155.9L386.551,164.624L388.715,165.891L390.811,154.787L392.975,159.544L395.138,165.948L397.162,163.215L399.323,171.947L401.416,173.271L403.58,174.742L405.673,179.087L407.837,178.016L410,182.157" data-legend="javascript" style="stroke: rgb(140, 86, 75); fill: none;"></path><path class="line" d="M2.163,296.603L4.257,298.139L6.42,297.864L8.517,297.615L10.68,297.652L12.844,296.539L14.798,298.018L16.958,296.037L19.052,296.987L21.215,297.133L23.309,298.331L25.472,297.524L27.636,296.83L29.729,296.61L31.893,296.405L33.989,297.232L36.153,296.253L38.316,297.408L40.27,296.036L42.431,295.832L44.524,296.502L46.688,297.283L48.781,297.344L50.945,297.728L53.108,296.785L55.202,296.758L57.365,296.04L59.462,296.978L61.625,297.203L63.788,297.019L65.742,296.783L67.903,297.203L69.997,297.348L72.16,297.638L74.254,297.655L76.417,297.499L78.58,297.453L80.674,296.486L82.837,296.729L84.934,296.283L87.097,297.537L89.261,296.872L91.285,296.707L93.445,296.371L95.539,297.162L97.702,297.431L99.796,297.626L101.959,297.752L104.123,297.188L106.216,296.475L108.38,296.557L110.476,296.757L112.64,296.871L114.803,296.438L116.757,296.442L118.917,296.759L121.011,296.966L123.174,296.894L125.268,297.178L127.431,297.924L129.595,297.053L131.689,296.566L133.852,296.018L135.948,296.389L138.112,296.988L140.275,296.659L142.229,296.369L144.39,296.888L146.483,296.863L148.647,297.252L150.74,297.957L152.904,298.115L155.067,297.172L157.161,296.223L159.324,296.143L161.421,296.5L163.584,296.632L165.748,296.44L167.702,296.609L169.862,296.121L171.956,296.67L174.119,297.605L176.213,297.758L178.376,297.966L180.54,297.564L182.633,296.121L184.797,296.199L186.893,296.571L189.057,297.7L191.22,296.895L193.244,296.352L195.404,296.462L197.498,297.12L199.661,297.35L201.755,298.076L203.918,297.626L206.082,296.707L208.175,296.172L210.339,296.045L212.435,296.759L214.599,297.081L216.762,297.102L218.716,296.904L220.877,297.017L222.97,296.855L225.134,297.739L227.227,297.936L229.391,297.956L231.554,297.617L233.648,296.727L235.811,296.166L237.908,297.133L240.071,297.338L242.234,296.903L244.188,296.906L246.349,296.677L248.443,297.028L250.606,297.767L252.7,298.073L254.863,298.119L257.026,296.998L259.12,296.634L261.283,296.596L263.38,297.208L265.543,297.529L267.707,297.409L269.661,297.097L271.821,296.655L273.915,297.38L276.078,297.519L278.172,297.903L280.335,297.949L282.499,297.263L284.592,296.484L286.756,296.794L288.852,296.847L291.016,297.36L293.179,296.865L295.203,296.827L297.363,296.526L299.457,296.759L301.62,296.784L303.714,297.252L305.877,296.994L308.041,296.491L310.134,295.912L312.298,295.319L314.394,296.254L316.558,296.291L318.721,296.867L320.675,296.373L322.836,296.045L324.929,296.212L327.093,296.591L329.186,297.496L331.35,297.772L333.513,297.307L335.607,297.119L337.77,295.99L339.867,296.011L342.03,296.775L344.194,296.825L346.148,296.815L348.308,296.368L350.402,296.266L352.565,296.396L354.659,296.911L356.822,297.579L358.986,297.185L361.079,296.424L363.243,295.842L365.339,295.472L367.502,295.997L369.666,296.611L371.62,296.884L373.78,295.531L375.874,295.891L378.037,296.284L380.131,295.967L382.294,296.178L384.458,295.625L386.551,294.947L388.715,295.561L390.811,294.451L392.975,295.133L395.138,296.252L397.162,295.968L399.323,294.388L401.416,294.289L403.58,296.277L405.673,296.198L407.837,294.511L410,295.429" data-legend="assembly" style="stroke: rgb(227, 119, 194); fill: none;"></path><path class="line" d="M2.163,242.499L4.257,229.858L6.42,233.659L8.517,233.648L10.68,233.069L12.844,227.607L14.798,226.341L16.958,224.466L19.052,223.635L21.215,206.286L23.309,195.507L25.472,188.094L27.636,185.276L29.729,191.514L31.893,182.991L33.989,174.8L36.153,172.25L38.316,182.02L40.27,180.296L42.431,178.244L44.524,171.877L46.688,177.23L48.781,173.474L50.945,165.332L53.108,171.776L55.202,181.939L57.365,177.422L59.462,170.824L61.625,166.002L63.788,164.888L65.742,165.867L67.903,166.834L69.997,165.188L72.16,164.384L74.254,156.102L76.417,161.013L78.58,167.952L80.674,167.338L82.837,166.76L84.934,165.374L87.097,166.395L89.261,166.306L91.285,164L93.445,165.345L95.539,163.815L97.702,165.058L99.796,161.707L101.959,159.431L104.123,160.945L106.216,168.61L108.38,166.869L110.476,163.433L112.64,163.29L114.803,163.088L116.757,164.165L118.917,169.238L121.011,168.466L123.174,165.72L125.268,164.315L127.431,159.406L129.595,156.388L131.689,161.205L133.852,159.228L135.948,154.584L138.112,151.527L140.275,153.177L142.229,152.703L144.39,148.418L146.483,160.179L148.647,166.457L150.74,165.213L152.904,164.904L155.067,165.468L157.161,168.643L159.324,169.225L161.421,167.173L163.584,162.683L165.748,165.403L167.702,168.24L169.862,167.749L171.956,168.361L174.119,171.776L176.213,168.135L178.376,168.283L180.54,172.398L182.633,174.756L184.797,174.699L186.893,166.429L189.057,165.176L191.22,167.201L193.244,174.211L195.404,176.616L197.498,172.064L199.661,175.855L201.755,177.308L203.918,180.795L206.082,181.056L208.175,182.432L210.339,185.414L212.435,181.251L214.599,180.131L216.762,180.226L218.716,183.151L220.877,183.45L222.97,182.619L225.134,189.381L227.227,190.189L229.391,189.859L231.554,189.268L233.648,193.143L235.811,194.75L237.908,194.589L240.071,194.118L242.234,199.891L244.188,204.436L246.349,207.628L248.443,205.225L250.606,208.067L252.7,209.814L254.863,209.578L257.026,210.446L259.12,214.414L261.283,220.269L263.38,220.656L265.543,219.037L267.707,216.224L269.661,218.498L271.821,221.091L273.915,222.464L276.078,225.366L278.172,225.629L280.335,228.235L282.499,231.46L284.592,233.088L286.756,230.704L288.852,233.337L291.016,232.18L293.179,234.202L295.203,238.833L297.363,239.036L299.457,241.129L301.62,241.862L303.714,239.642L305.877,243.287L308.041,243.235L310.134,245.61L312.298,242.411L314.394,239.692L316.558,242.657L318.721,243.817L320.675,246.123L322.836,246.563L324.929,246.284L327.093,246.681L329.186,247.052L331.35,246.633L333.513,247.913L335.607,249.124L337.77,250.665L339.867,251.319L342.03,252.228L344.194,253.8L346.148,257.248L348.308,253.085L350.402,251.188L352.565,251.541L354.659,253.023L356.822,253.426L358.986,253.99L361.079,256.12L363.243,257.144L365.339,258.686L367.502,256.103L369.666,260.44L371.62,263.317L373.78,260.76L375.874,258.654L378.037,258.81L380.131,261.097L382.294,257.737L384.458,255.512L386.551,261.002L388.715,263.623L390.811,262.922L392.975,261.701L395.138,262.868L397.162,260.443L399.323,264.263L401.416,263.168L403.58,259.115L405.673,263.86L407.837,259.461L410,263.651" data-legend="php" style="stroke: rgb(127, 127, 127); fill: none;"></path><path class="line" d="M2.163,284.23L4.257,285.111L6.42,287.052L8.517,281.343L10.68,284.415L12.844,284.329L14.798,288.769L16.958,287.239L19.052,287.163L21.215,285.307L23.309,286.652L25.472,287.205L27.636,287.372L29.729,286.904L31.893,285.884L33.989,288.346L36.153,288.758L38.316,286.966L40.27,287.43L42.431,287.797L44.524,290.737L46.688,287.651L48.781,287.964L50.945,285.601L53.108,287.359L55.202,286.9L57.365,288.797L59.462,287.914L61.625,290.032L63.788,290.245L65.742,289.933L67.903,290.325L69.997,290.249L72.16,290.365L74.254,288.98L76.417,290.422L78.58,291.729L80.674,290.757L82.837,290.637L84.934,291.247L87.097,291.825L89.261,291.641L91.285,292.312L93.445,292.137L95.539,291.903L97.702,290.458L99.796,292.095L101.959,290.961L104.123,291.59L106.216,292.344L108.38,292.773L110.476,293.153L112.64,292.963L114.803,291.809L116.757,291.77L118.917,291.781L121.011,290.899L123.174,291.225L125.268,290.942L127.431,291.783L129.595,293.058L131.689,292.575L133.852,292.17L135.948,292.259L138.112,292.8L140.275,292.951L142.229,292.657L144.39,292.892L146.483,292.417L148.647,292.991L150.74,293.044L152.904,292.966L155.067,293.127L157.161,293.79L159.324,293.376L161.421,293.889L163.584,294.035L165.748,294.36L167.702,294.336L169.862,294.905L171.956,295.219L174.119,294.886L176.213,295.016L178.376,294.874L180.54,295.593L182.633,295.506L184.797,295.622L186.893,295.341L189.057,295.856L191.22,295.526L193.244,296.093L195.404,295.785L197.498,295.688L199.661,296.034L201.755,296.066L203.918,295.735L206.082,295.469L208.175,296.143L210.339,296.459L212.435,296.509L214.599,296.909L216.762,296.169L218.716,296.578L220.877,296.516L222.97,296.8L225.134,297.048L227.227,296.979L229.391,296.625L231.554,296.92L233.648,296.698L235.811,297.364L237.908,297.249L240.071,297.422L242.234,297.465L244.188,297.189L246.349,297.373L248.443,297.562L250.606,297.395L252.7,297.396L254.863,297.574L257.026,297.596L259.12,297.077L261.283,297.354L263.38,297.208L265.543,297.03L267.707,297.108L269.661,297.57L271.821,297.737L273.915,297.526L276.078,297.07L278.172,297.354L280.335,297.628L282.499,297.536L284.592,297.693L286.756,297.502L288.852,297.996L291.016,298.098L293.179,297.926L295.203,297.878L297.363,297.976L299.457,298.08L301.62,298.053L303.714,298.209L305.877,297.813L308.041,298.019L310.134,297.974L312.298,298.123L314.394,298.348L316.558,298.248L318.721,298.292L320.675,298.272L322.836,298.309L324.929,298.485L327.093,297.981L329.186,298.122L331.35,298.367L333.513,298.421L335.607,298.198L337.77,298.909L339.867,298.48L342.03,298.218L344.194,298.576L346.148,298.592L348.308,298.524L350.402,298.678L352.565,298.137L354.659,298.083L356.822,298.266L358.986,298.666L361.079,298.713L363.243,298.352L365.339,298.363L367.502,298.747L369.666,298.463L371.62,298.192L373.78,298.649L375.874,298.656L378.037,298.567L380.131,298.252L382.294,298.651L384.458,298.148L386.551,298.357L388.715,298.844L390.811,298.357L392.975,299.082L395.138,298.97L397.162,298.627L399.323,299.211L401.416,298.781L403.58,298.916L405.673,298.696L407.837,298.292L410,298.793" data-legend="perl" style="stroke: rgb(188, 189, 34); fill: none;"></path><path class="line" d="M2.163,265.306L4.257,271.385L6.42,279.444L8.517,277.695L10.68,278.117L12.844,272.504L14.798,272.832L16.958,271.784L19.052,273.803L21.215,274.257L23.309,273.981L25.472,275.029L27.636,275.613L29.729,277.151L31.893,271.329L33.989,274.549L36.153,274.443L38.316,274.158L40.27,277.697L42.431,274.721L44.524,274.9L46.688,274.335L48.781,274.822L50.945,273.817L53.108,274.306L55.202,275.644L57.365,277.643L59.462,275.32L61.625,274.723L63.788,274.71L65.742,272.733L67.903,274.053L69.997,273.786L72.16,273.594L74.254,273.589L76.417,270.951L78.58,274.51L80.674,273.354L82.837,273.166L84.934,272.876L87.097,272.603L89.261,272.286L91.285,272.491L93.445,274.386L95.539,275.394L97.702,275.713L99.796,275.586L101.959,275.571L104.123,275.151L106.216,274.73L108.38,275.831L110.476,276.365L112.64,275.481L114.803,275.714L116.757,275.282L118.917,275.892L121.011,276.407L123.174,276.429L125.268,276.811L127.431,275.538L129.595,275.79L131.689,274.565L133.852,275.48L135.948,275.26L138.112,275.477L140.275,276.783L142.229,276.173L144.39,276.258L146.483,274.476L148.647,275.873L150.74,275.776L152.904,274.715L155.067,277.069L157.161,277.233L159.324,278.734L161.421,276.8L163.584,275.472L165.748,277.46L167.702,278.215L169.862,277.818L171.956,277.328L174.119,276.943L176.213,277.769L178.376,278.556L180.54,279.586L182.633,280.208L184.797,281.524L186.893,280.2L189.057,280.064L191.22,279.901L193.244,281.134L195.404,281.041L197.498,281.064L199.661,280.781L201.755,281.922L203.918,282.616L206.082,281.098L208.175,282.523L210.339,283.133L212.435,283.097L214.599,282.626L216.762,284.405L218.716,285.032L220.877,285.98L222.97,286.289L225.134,286.621L227.227,285.728L229.391,286.777L231.554,287.295L233.648,287.138L235.811,288.299L237.908,288.208L240.071,287.793L242.234,288.66L244.188,289.653L246.349,289.771L248.443,289.604L250.606,289.176L252.7,290.05L254.863,290.66L257.026,290.924L259.12,290.568L261.283,290.579L263.38,289.679L265.543,289.618L267.707,290.919L269.661,291.165L271.821,291.533L273.915,291.491L276.078,291.247L278.172,291.5L280.335,290.401L282.499,291.146L284.592,290.606L286.756,292.197L288.852,291.487L291.016,291.227L293.179,292.402L295.203,292.312L297.363,292.941L299.457,293.707L301.62,293.982L303.714,292.927L305.877,293.702L308.041,293.889L310.134,294.149L312.298,293.742L314.394,293.719L316.558,293.694L318.721,293.195L320.675,294.372L322.836,293.571L324.929,294.962L327.093,294.519L329.186,293.943L331.35,293.843L333.513,293.739L335.607,294.139L337.77,294.446L339.867,294.4L342.03,293.747L344.194,294.006L346.148,293.932L348.308,293.637L350.402,293.666L352.565,293.594L354.659,293.867L356.822,293.663L358.986,293.509L361.079,294.072L363.243,293.64L365.339,294.008L367.502,294.326L369.666,293.834L371.62,294.903L373.78,295.138L375.874,294.343L378.037,294.904L380.131,294.623L382.294,295.082L384.458,294.667L386.551,294.668L388.715,296.06L390.811,295.257L392.975,295.522L395.138,295.509L397.162,296.027L399.323,296.542L401.416,296.246L403.58,295.771L405.673,296.415L407.837,295.446L410,296.076" data-legend="ruby" style="stroke: rgb(23, 190, 207); fill: none;"></path><path class="line" d="M2.163,300L4.257,300L6.42,300L8.517,300L10.68,299.893L12.844,299.904L14.798,299.917L16.958,300L19.052,299.869L21.215,300L23.309,300L25.472,299.845L27.636,299.847L29.729,299.954L31.893,299.868L33.989,299.955L36.153,300L38.316,299.925L40.27,299.968L42.431,299.933L44.524,299.968L46.688,299.909L48.781,299.972L50.945,299.947L53.108,299.945L55.202,299.974L57.365,299.976L59.462,299.952L61.625,299.916L63.788,299.899L65.742,299.95L67.903,299.947L69.997,299.983L72.16,299.932L74.254,299.799L76.417,299.874L78.58,299.901L80.674,299.9L82.837,299.938L84.934,299.967L87.097,299.913L89.261,299.877L91.285,299.949L93.445,299.934L95.539,299.912L97.702,299.948L99.796,299.893L101.959,299.941L104.123,299.911L106.216,299.955L108.38,299.955L110.476,299.95L112.64,299.947L114.803,299.934L116.757,299.952L118.917,299.941L121.011,299.98L123.174,299.957L125.268,299.933L127.431,299.96L129.595,299.909L131.689,299.909L133.852,299.952L135.948,299.888L138.112,299.947L140.275,299.893L142.229,299.959L144.39,299.965L146.483,299.914L148.647,275.303L150.74,284.509L152.904,282.604L155.067,280.83L157.161,276.065L159.324,274.271L161.421,273.149L163.584,269.142L165.748,267.711L167.702,268.174L169.862,264.45L171.956,265.652L174.119,261.296L176.213,255.711L178.376,252.878L180.54,257.02L182.633,261.23L184.797,259.257L186.893,257.391L189.057,255.574L191.22,257.592L193.244,257.658L195.404,259.409L197.498,260.848L199.661,256.261L201.755,253.089L203.918,254.615L206.082,252.348L208.175,254.572L210.339,258.078L212.435,259.243L214.599,258.679L216.762,261.051L218.716,261.48L220.877,263.133L222.97,263.069L225.134,260.364L227.227,259.249L229.391,260.358L231.554,260.939L233.648,261.452L235.811,263.449L237.908,262.905L240.071,260.686L242.234,262.542L244.188,260.574L246.349,263.02L248.443,263.653L250.606,265.722L252.7,261.258L254.863,261.944L257.026,263.261L259.12,265.584L261.283,266.366L263.38,264.464L265.543,267.175L267.707,269.113L269.661,269.11L271.821,266.22L273.915,265.369L276.078,261.611L278.172,266.022L280.335,268.794L282.499,268.473L284.592,265.74L286.756,267.429L288.852,266.165L291.016,266.707L293.179,267.917L295.203,268.556L297.363,268.252L299.457,268.274L301.62,269.053L303.714,269.684L305.877,269.571L308.041,269.6L310.134,272.483L312.298,273.027L314.394,273.642L316.558,272.156L318.721,271.138L320.675,273.022L322.836,273.81L324.929,276.627L327.093,276.645L329.186,273.376L331.35,273.96L333.513,277.214L335.607,277.861L337.77,278.336L339.867,278.7L342.03,275.598L344.194,276.307L346.148,276.273L348.308,278.653L350.402,278.848L352.565,277.164L354.659,277.676L356.822,277.864L358.986,275.775L361.079,278.942L363.243,277.933L365.339,278.699L367.502,279.026L369.666,279.078L371.62,278.264L373.78,278.023L375.874,279.53L378.037,275.159L380.131,274.889L382.294,278.363L384.458,277.197L386.551,276.533L388.715,277.543L390.811,277.369L392.975,276.22L395.138,280.919L397.162,279.024L399.323,279.28L401.416,280.461L403.58,277.117L405.673,277.512L407.837,275.034L410,273.525" data-legend="swift" style="stroke: rgb(31, 119, 180); fill: none;"></path><path class="line" d="M2.163,299.272L4.257,300L6.42,299.867L8.517,299.86L10.68,299.146L12.844,299.231L14.798,299.67L16.958,299.049L19.052,299.869L21.215,299.701L23.309,297.445L25.472,297.575L27.636,292.945L29.729,296.61L31.893,295.923L33.989,296.428L36.153,296.477L38.316,295.418L40.27,295.52L42.431,294.621L44.524,295.498L46.688,294.686L48.781,293.553L50.945,292.523L53.108,293.515L55.202,294.359L57.365,294.181L59.462,294.61L61.625,294.764L63.788,293.47L65.742,292.967L67.903,291.662L69.997,292.868L72.16,292.489L74.254,292.413L76.417,290.783L78.58,289.877L80.674,289.708L82.837,290.621L84.934,290.024L87.097,289.945L89.261,288.923L91.285,288.766L93.445,289.008L95.539,289.028L97.702,287.527L99.796,286.802L101.959,287.107L104.123,286.551L106.216,285.799L108.38,284.728L110.476,284.964L112.64,283.939L114.803,281.804L116.757,282.174L118.917,282.039L121.011,282.05L123.174,281.226L125.268,281.359L127.431,281.095L129.595,282.681L131.689,281.003L133.852,279.242L135.948,280.632L138.112,279.166L140.275,276.604L142.229,277.389L144.39,276.431L146.483,275.385L148.647,275.22L150.74,275.044L152.904,274.643L155.067,276.147L157.161,273.086L159.324,272.736L161.421,274.492L163.584,272.845L165.748,270.351L167.702,268.441L169.862,270.521L171.956,269L174.119,269.353L176.213,265.723L178.376,267.588L180.54,268.516L182.633,266.79L184.797,266.595L186.893,268.966L189.057,267.121L191.22,267.937L193.244,266.208L195.404,264.695L197.498,266.28L199.661,264.732L201.755,264.329L203.918,264.935L206.082,267.563L208.175,263.623L210.339,265.785L212.435,267.284L214.599,266.77L216.762,264.641L218.716,261.505L220.877,259.781L222.97,261.045L225.134,257.98L227.227,257.082L229.391,256.651L231.554,256.111L233.648,254.996L235.811,255.063L237.908,256.916L240.071,255.846L242.234,250.419L244.188,250.246L246.349,250.922L248.443,252.401L250.606,250.991L252.7,253.415L254.863,256.184L257.026,256.05L259.12,254.115L261.283,252.309L263.38,256.538L265.543,255.353L267.707,250.963L269.661,252.828L271.821,249.308L273.915,251.945L276.078,250.888L278.172,252.98L280.335,251.226L282.499,251.298L284.592,251.465L286.756,251.183L288.852,252.291L291.016,252.366L293.179,245.599L295.203,244.637L297.363,243.009L299.457,245.62L301.62,246.582L303.714,249.799L305.877,248.856L308.041,243.307L310.134,239.663L312.298,239.883L314.394,245.329L316.558,247.622L318.721,244.523L320.675,241.302L322.836,240.444L324.929,241.158L327.093,243.966L329.186,244.969L331.35,244.212L333.513,245.064L335.607,240.836L337.77,243.014L339.867,246.818L342.03,245.678L344.194,241.991L346.148,238.824L348.308,238.382L350.402,239.973L352.565,241.138L354.659,244.272L356.822,243.472L358.986,242.472L361.079,237.828L363.243,238.418L365.339,244.126L367.502,243.327L369.666,235.597L371.62,236.445L373.78,236.155L375.874,239.808L378.037,241.4L380.131,245.665L382.294,243.827L384.458,244.27L386.551,245.007L388.715,247.943L390.811,250.552L392.975,250.243L395.138,247.935L397.162,250.802L399.323,253.493L401.416,255.95L403.58,257.055L405.673,258.066L407.837,260.843L410,262.659" data-legend="r" style="stroke: rgb(255, 127, 14); fill: none;"></path><path class="line" d="M2.163,293.935L4.257,289.531L6.42,285.851L8.517,282.746L10.68,284.735L12.844,279.811L14.798,275.97L16.958,271.784L19.052,267.253L21.215,270.733L23.309,264.648L25.472,263.988L27.636,264.519L29.729,265.262L31.893,266.769L33.989,265.083L36.153,262.901L38.316,262.138L40.27,263.612L42.431,261.174L44.524,257.703L46.688,256.732L48.781,246.573L50.945,250.593L53.108,254.575L55.202,254.241L57.365,255.865L59.462,255.789L61.625,254.262L63.788,250.738L65.742,249.35L67.903,243.409L69.997,241.48L72.16,243.33L74.254,238.418L76.417,239.904L78.58,246.043L80.674,245.959L82.837,245.169L84.934,246.322L87.097,245.585L89.261,247.823L91.285,251.948L93.445,249.194L95.539,251.809L97.702,251.335L99.796,249.119L101.959,250.095L104.123,256.944L106.216,253.85L108.38,256.4L110.476,253.885L112.64,256.655L114.803,257.265L116.757,257.387L118.917,260.249L121.011,261.542L123.174,264.303L125.268,264.31L127.431,265.027L129.595,260.027L131.689,259.385L133.852,261.701L135.948,259.585L138.112,260.872L140.275,259.12L142.229,259.478L144.39,259.797L146.483,260.38L148.647,261.295L150.74,260.447L152.904,262.016L155.067,262.208L157.161,264.238L159.324,267.132L161.421,267.275L163.584,269.792L165.748,268.421L167.702,270.98L169.862,270.086L171.956,271.631L174.119,272.098L176.213,271.475L178.376,272.39L180.54,272.791L182.633,274.448L184.797,277.931L186.893,278.031L189.057,278.052L191.22,279.194L193.244,280.941L195.404,280.99L197.498,282.256L199.661,281.037L201.755,282.188L203.918,283.237L206.082,283.536L208.175,284.37L210.339,284.99L212.435,284.468L214.599,286.052L216.762,287.139L218.716,287.919L220.877,289.256L222.97,289.317L225.134,288.456L227.227,289.641L229.391,290.655L231.554,290.781L233.648,291.501L235.811,291.923L237.908,292.595L240.071,293.034L242.234,293.531L244.188,294.202L246.349,294.247L248.443,294.137L250.606,294.725L252.7,294.623L254.863,294.977L257.026,295.18L259.12,295.632L261.283,296.177L263.38,296.53L265.543,296.35L267.707,296.634L269.661,296.824L271.821,296.512L273.915,296.932L276.078,296.808L278.172,297.275L280.335,297.406L282.499,296.917L284.592,296.473L286.756,296.885L288.852,296.873L291.016,296.945L293.179,297.087L295.203,297.434L297.363,297.357L299.457,297.555L301.62,297.837L303.714,297.1L305.877,297.654L308.041,297.326L310.134,297.056L312.298,297.372L314.394,297.982L316.558,298.2L318.721,297.74L320.675,298.045L322.836,297.985L324.929,298.384L327.093,298.164L329.186,298.339L331.35,298.312L333.513,298.491L335.607,298.184L337.77,298.186L339.867,298.359L342.03,298.09L344.194,298.62L346.148,298.879L348.308,298.302L350.402,298.78L352.565,298.592L354.659,298.706L356.822,298.744L358.986,298.65L361.079,298.697L363.243,298.522L365.339,299.025L367.502,299.06L369.666,298.916L371.62,298.846L373.78,299.018L375.874,298.453L378.037,299.045L380.131,298.898L382.294,298.96L384.458,299.138L386.551,299.039L388.715,298.66L390.811,298.667L392.975,298.943L395.138,298.856L397.162,298.861L399.323,298.756L401.416,298.781L403.58,298.843L405.673,298.733L407.837,299.024L410,297.93" data-legend="objective-c" style="stroke: rgb(44, 160, 44); fill: none;"></path></g></g><g transform="translate(20, 150)"><text font-family="sans-serif" transform="rotate(-90)" x="-50" y="0" dy="1em" class="axis-label y-axis-label" style="text-anchor: middle; font-weight: bold;">% of Stack Overflow questions that month</text></g><g font-family="sans-serif" class="legend" transform="translate(530, 20)" style="font-size: 12px;"><rect y="0" width="10" height="10" style="fill: rgb(31, 119, 180);"></rect><rect y="15" width="10" height="10" style="fill: rgb(255, 127, 14);"></rect><rect y="30" width="10" height="10" style="fill: rgb(44, 160, 44);"></rect><rect y="45" width="10" height="10" style="fill: rgb(214, 39, 40);"></rect><rect y="60" width="10" height="10" style="fill: rgb(148, 103, 189);"></rect><rect y="75" width="10" height="10" style="fill: rgb(140, 86, 75);"></rect><rect y="90" width="10" height="10" style="fill: rgb(227, 119, 194);"></rect><rect y="105" width="10" height="10" style="fill: rgb(127, 127, 127);"></rect><rect y="120" width="10" height="10" style="fill: rgb(188, 189, 34);"></rect><rect y="135" width="10" height="10" style="fill: rgb(23, 190, 207);"></rect><rect y="150" width="10" height="10" style="fill: rgb(31, 119, 180);"></rect><rect y="165" width="10" height="10" style="fill: rgb(255, 127, 14);"></rect><rect y="180" width="10" height="10" style="fill: rgb(44, 160, 44);"></rect><text font-size="10px" x="13" y="5" text-anchor="left">java</text><text font-size="10px" x="13" y="20" text-anchor="left">c</text><text font-size="10px" x="13" y="35" text-anchor="left">python</text><text font-size="10px" x="13" y="50" text-anchor="left">c#</text><text font-size="10px" x="13" y="65" text-anchor="left">vb.net</text><text font-size="10px" x="13" y="80" text-anchor="left">javascript</text><text font-size="10px" x="13" y="95" text-anchor="left">assembly</text><text font-size="10px" x="13" y="110" text-anchor="left">php</text><text font-size="10px" x="13" y="125" text-anchor="left">perl</text><text font-size="10px" x="13" y="140" text-anchor="left">ruby</text><text font-size="10px" x="13" y="155" text-anchor="left">swift</text><text font-size="10px" x="13" y="170" text-anchor="left">r</text><text font-size="10px" x="13" y="185" text-anchor="left">objective-c</text></g></svg>